<svg width="64" height="64" viewBox="0 0 64 64" fill="none" xmlns="http://www.w3.org/2000/svg">
<path d="M55.9863 21.3282C55.9854 20.3931 55.7385 19.4748 55.2706 18.6652C54.8027 17.8557 54.1301 17.1835 53.3203 16.7159L34.6582 6.05188C33.8476 5.5839 32.9282 5.33752 31.9922 5.33752C31.0562 5.33752 30.1367 5.5839 29.3262 6.05188L10.6641 16.7159C9.85429 17.1835 9.1817 17.8557 8.71377 18.6652C8.24583 19.4748 7.99901 20.3931 7.99805 21.3282V42.6563C7.99901 43.5913 8.24583 44.5097 8.71377 45.3192C9.1817 46.1287 9.85429 46.801 10.6641 47.2685L29.3262 57.9325C30.1367 58.4005 31.0562 58.6469 31.9922 58.6469C32.9282 58.6469 33.8476 58.4005 34.6582 57.9325L53.3203 47.2685C54.1301 46.801 54.8027 46.1287 55.2706 45.3192C55.7385 44.5097 55.9854 43.5913 55.9863 42.6563V21.3282Z" stroke="#636E72" stroke-width="3.99902" stroke-linecap="round" stroke-linejoin="round"/>
<path d="M8.79785 18.6621L31.9922 31.9922L55.1865 18.6621" stroke="#636E72" stroke-width="3.99902" stroke-linecap="round" stroke-linejoin="round"/>
<path d="M31.9922 58.6523V31.9922" stroke="#636E72" stroke-width="3.99902" stroke-linecap="round" stroke-linejoin="round"/>
</svg>
