<svg width="225" height="404" viewBox="0 0 225 404" fill="none" xmlns="http://www.w3.org/2000/svg">
<path d="M102 121.201L222 61.2006V341.201L102 401.201V121.201Z" fill="#1E88E5" stroke="black" stroke-width="4" stroke-linejoin="round"/>
<path d="M2.0812 61.2168L121.991 1.99996L222.094 60.8552L102.184 120.072L2.0812 61.2168Z" fill="#64B5F6" stroke="black" stroke-width="4" stroke-linejoin="round"/>
<path d="M2 61.2006V341.201L102 401.201V121.201L2 61.2006Z" fill="#EEEEEE" stroke="black" stroke-width="4" stroke-linejoin="round"/>
<path d="M17 90.2006V330.201L87 370.201V130.201L17 90.2006Z" fill="#37474F"/>
<path d="M26 296.201L78 326.201V341.201L26 311.201V296.201Z" fill="#607D8B"/>
<path d="M26 271.201L78 301.201V316.201L26 286.201V271.201Z" fill="#607D8B"/>
<path d="M26 222.201L78 252.201V267.201L26 237.201V222.201Z" fill="#607D8B"/>
<path d="M26 247.201L78 277.201V292.201L26 262.201V247.201Z" fill="#607D8B"/>
<path d="M26 102.201L78 132.201V147.201L26 117.201V102.201Z" fill="#607D8B"/>
<path d="M26 126.201L78 156.201V171.201L26 141.201V126.201Z" fill="#607D8B"/>
<path d="M26 150.201L78 180.201V195.201L26 165.201V150.201Z" fill="#607D8B"/>
<path d="M26 174.201L78 204.201V219.201L26 189.201V174.201Z" fill="#607D8B"/>
<path d="M26 198.201L78 228.201V243.201L26 213.201V198.201Z" fill="#607D8B"/>
<path d="M32.457 117.2C33.8376 117.217 34.976 115.664 34.9997 113.731C35.0234 111.798 33.9234 110.218 32.5428 110.201C31.1622 110.184 30.0238 111.737 30.0001 113.67C29.9764 115.603 31.0764 117.183 32.457 117.2Z" fill="#4CAF50"/>
<path opacity="0.4" d="M53.5 128.201C54.3284 128.201 55 127.305 55 126.201C55 125.096 54.3284 124.201 53.5 124.201C52.6716 124.201 52 125.096 52 126.201C52 127.305 52.6716 128.201 53.5 128.201Z" fill="#263238"/>
<path opacity="0.4" d="M60.5 132.201C61.3284 132.201 62 131.305 62 130.201C62 129.096 61.3284 128.201 60.5 128.201C59.6716 128.201 59 129.096 59 130.201C59 131.305 59.6716 132.201 60.5 132.201Z" fill="#263238"/>
<path opacity="0.4" d="M67.5 136.201C68.3284 136.201 69 135.305 69 134.201C69 133.096 68.3284 132.201 67.5 132.201C66.6716 132.201 66 133.096 66 134.201C66 135.305 66.6716 136.201 67.5 136.201Z" fill="#263238"/>
<path d="M32.457 141.2C33.8376 141.217 34.976 139.664 34.9997 137.731C35.0234 135.798 33.9234 134.218 32.5428 134.201C31.1622 134.184 30.0238 135.737 30.0001 137.67C29.9764 139.603 31.0764 141.183 32.457 141.2Z" fill="#4CAF50"/>
<path opacity="0.4" d="M53.5 152.201C54.3284 152.201 55 151.305 55 150.201C55 149.096 54.3284 148.201 53.5 148.201C52.6716 148.201 52 149.096 52 150.201C52 151.305 52.6716 152.201 53.5 152.201Z" fill="#263238"/>
<path opacity="0.4" d="M60.5 156.201C61.3284 156.201 62 155.305 62 154.201C62 153.096 61.3284 152.201 60.5 152.201C59.6716 152.201 59 153.096 59 154.201C59 155.305 59.6716 156.201 60.5 156.201Z" fill="#263238"/>
<path opacity="0.4" d="M67.5 160.201C68.3284 160.201 69 159.305 69 158.201C69 157.096 68.3284 156.201 67.5 156.201C66.6716 156.201 66 157.096 66 158.201C66 159.305 66.6716 160.201 67.5 160.201Z" fill="#263238"/>
<path d="M32.457 165.2C33.8376 165.217 34.976 163.664 34.9997 161.731C35.0234 159.798 33.9234 158.218 32.5428 158.201C31.1622 158.184 30.0238 159.737 30.0001 161.67C29.9764 163.603 31.0764 165.183 32.457 165.2Z" fill="#4CAF50"/>
<path d="M32.457 189.2C33.8376 189.217 34.976 187.664 34.9997 185.731C35.0234 183.798 33.9234 182.218 32.5428 182.201C31.1622 182.184 30.0238 183.737 30.0001 185.67C29.9764 187.603 31.0764 189.183 32.457 189.2Z" fill="#4CAF50"/>
<path d="M32.457 213.2C33.8376 213.217 34.976 211.664 34.9997 209.731C35.0234 207.798 33.9234 206.218 32.5428 206.201C31.1622 206.184 30.0238 207.737 30.0001 209.67C29.9764 211.603 31.0764 213.183 32.457 213.2Z" fill="#DDDD23"/>
<path d="M32.457 237.2C33.8376 237.217 34.976 235.664 34.9997 233.731C35.0234 231.798 33.9234 230.218 32.5428 230.201C31.1622 230.184 30.0238 231.737 30.0001 233.67C29.9764 235.603 31.0764 237.183 32.457 237.2Z" fill="#4CAF50"/>
<path d="M32.457 262.2C33.8376 262.217 34.976 260.664 34.9997 258.731C35.0234 256.798 33.9234 255.218 32.5428 255.201C31.1622 255.184 30.0238 256.737 30.0001 258.67C29.9764 260.603 31.0764 262.183 32.457 262.2Z" fill="#E62929"/>
<path d="M32.457 286.2C33.8376 286.217 34.976 284.664 34.9997 282.731C35.0234 280.798 33.9234 279.218 32.5428 279.201C31.1622 279.184 30.0238 280.737 30.0001 282.67C29.9764 284.603 31.0764 286.183 32.457 286.2Z" fill="#E62929"/>
<path d="M32.457 311.2C33.8376 311.217 34.976 309.664 34.9997 307.731C35.0234 305.798 33.9234 304.218 32.5428 304.201C31.1622 304.184 30.0238 305.737 30.0001 307.67C29.9764 309.603 31.0764 311.183 32.457 311.2Z" fill="#4CAF50"/>
<path opacity="0.4" d="M53.5 176.201C54.3284 176.201 55 175.305 55 174.201C55 173.096 54.3284 172.201 53.5 172.201C52.6716 172.201 52 173.096 52 174.201C52 175.305 52.6716 176.201 53.5 176.201Z" fill="#263238"/>
<path opacity="0.4" d="M60.5 180.201C61.3284 180.201 62 179.305 62 178.201C62 177.096 61.3284 176.201 60.5 176.201C59.6716 176.201 59 177.096 59 178.201C59 179.305 59.6716 180.201 60.5 180.201Z" fill="#263238"/>
<path opacity="0.4" d="M67.5 184.201C68.3284 184.201 69 183.305 69 182.201C69 181.096 68.3284 180.201 67.5 180.201C66.6716 180.201 66 181.096 66 182.201C66 183.305 66.6716 184.201 67.5 184.201Z" fill="#263238"/>
</svg>
