<svg width="64" height="64" viewBox="0 0 64 64" fill="none" xmlns="http://www.w3.org/2000/svg">
<path d="M26.6637 31.9966H37.3292" stroke="#636E72" stroke-width="3.99957" stroke-linecap="round" stroke-linejoin="round"/>
<path d="M26.6637 21.331H37.3292" stroke="#636E72" stroke-width="3.99957" stroke-linecap="round" stroke-linejoin="round"/>
<path d="M37.3292 55.994V47.9948C37.3292 46.5805 36.7674 45.2241 35.7673 44.224C34.7672 43.2239 33.4108 42.6621 31.9965 42.6621C30.5822 42.6621 29.2257 43.2239 28.2257 44.224C27.2256 45.2241 26.6637 46.5805 26.6637 47.9948V55.994" stroke="#636E72" stroke-width="3.99957" stroke-linecap="round" stroke-linejoin="round"/>
<path d="M15.9983 26.6638H10.6656C9.25122 26.6638 7.89481 27.2256 6.89472 28.2257C5.89464 29.2258 5.3328 30.5822 5.3328 31.9966V50.6612C5.3328 52.0755 5.89464 53.4319 6.89472 54.432C7.89481 55.4321 9.25122 55.994 10.6656 55.994H53.3276C54.7419 55.994 56.0983 55.4321 57.0984 54.432C58.0985 53.4319 58.6603 52.0755 58.6603 50.6612V23.9974C58.6603 22.5831 58.0985 21.2267 57.0984 20.2266C56.0983 19.2265 54.7419 18.6647 53.3276 18.6647H47.9948" stroke="#636E72" stroke-width="4" stroke-linecap="round" stroke-linejoin="round"/>
<path d="M15.9983 55.9939V13.3319C15.9983 11.9176 16.5601 10.5612 17.5602 9.56107C18.5603 8.56099 19.9167 7.99915 21.331 7.99915H42.662C44.0764 7.99915 45.4328 8.56099 46.4329 9.56107C47.4329 10.5612 47.9948 11.9176 47.9948 13.3319V55.9939" stroke="#636E72" stroke-width="3.99957" stroke-linecap="round" stroke-linejoin="round"/>
</svg>
