<svg width="192" height="111" viewBox="0 0 192 111" fill="none" xmlns="http://www.w3.org/2000/svg">
<path d="M175.71 42.08L169.44 48.32V55.36H191.72V48.32H177.8L184.06 42.08L177.8 35.8901H191.72V28.81H169.44V35.8901L175.71 42.08ZM175.71 13.32L169.44 19.56V26.6H191.72V19.56H177.8L184.06 13.32L177.8 7.13007H191.72V0.0499878H169.44V7.13007L175.71 13.32Z" fill="black"/>
<path d="M46.59 110.84H73.48V86.59H83.5V62.35H73.48V38.1H46.59V62.35H33.3999L56.61 0H26.5499L0 62.35V86.59H46.59V110.84Z" fill="black"/>
<path d="M136.93 110.84H163.82V86.59H173.84V62.35H163.82V38.1H136.93V62.35H123.74L146.95 0H116.89L90.34 62.35V86.59H136.93V110.84Z" fill="black"/>
</svg>
