<svg><defs/><symbol id="icon-box" viewBox="0 0 64 64">
<path d="M55.9863 21.3282C55.9854 20.3931 55.7385 19.4748 55.2706 18.6652C54.8027 17.8557 54.1301 17.1835 53.3203 16.7159L34.6582 6.05188C33.8476 5.5839 32.9282 5.33752 31.9922 5.33752C31.0562 5.33752 30.1367 5.5839 29.3262 6.05188L10.6641 16.7159C9.85429 17.1835 9.1817 17.8557 8.71377 18.6652C8.24583 19.4748 7.99901 20.3931 7.99805 21.3282V42.6563C7.99901 43.5913 8.24583 44.5097 8.71377 45.3192C9.1817 46.1287 9.85429 46.801 10.6641 47.2685L29.3262 57.9325C30.1367 58.4005 31.0562 58.6469 31.9922 58.6469C32.9282 58.6469 33.8476 58.4005 34.6582 57.9325L53.3203 47.2685C54.1301 46.801 54.8027 46.1287 55.2706 45.3192C55.7385 44.5097 55.9854 43.5913 55.9863 42.6563V21.3282Z" stroke="#636E72" stroke-width="3.99902" stroke-linecap="round" stroke-linejoin="round"/>
<path d="M8.79785 18.6621L31.9922 31.9922L55.1865 18.6621" stroke="#636E72" stroke-width="3.99902" stroke-linecap="round" stroke-linejoin="round"/>
<path d="M31.9922 58.6523V31.9922" stroke="#636E72" stroke-width="3.99902" stroke-linecap="round" stroke-linejoin="round"/>
</symbol><symbol id="icon-check-list" viewBox="0 0 24 24">
  <path d="M6 13L10 17L18 7" stroke="currentColor" stroke-width="2" fill="none" stroke-linecap="round" stroke-linejoin="round"/>
</symbol><symbol id="icon-cloud" viewBox="0 0 64 64">
<path d="M47.5294 36C52.2076 36 56 31.9705 56 27C56 22.0295 52.2076 18 47.5294 18C46.9647 18 46.4 18.06 45.8353 18.18C44.7059 11.4 39.0588 6 32 6C24.9412 6 19.2941 11.4 18.1647 18.18C17.6 18.06 17.0353 18 16.4706 18C11.7924 18 8 22.0295 8 27C8 31.9705 11.7924 36 16.4706 36H47.5294Z" stroke="#636E72" stroke-width="4" stroke-linecap="round" stroke-linejoin="round"/>
<path d="M16 45V53" stroke="#636E72" stroke-width="4" stroke-linecap="round"/>
<path d="M26 47V59" stroke="#636E72" stroke-width="4" stroke-linecap="round"/>
<path d="M33 45V53" stroke="#636E72" stroke-width="4" stroke-linecap="round"/>
<path d="M41 47V59" stroke="#636E72" stroke-width="4" stroke-linecap="round"/>
</symbol><symbol id="icon-house" viewBox="0 0 64 64">
<path d="M26.6637 31.9966H37.3292" stroke="#636E72" stroke-width="3.99957" stroke-linecap="round" stroke-linejoin="round"/>
<path d="M26.6637 21.331H37.3292" stroke="#636E72" stroke-width="3.99957" stroke-linecap="round" stroke-linejoin="round"/>
<path d="M37.3292 55.994V47.9948C37.3292 46.5805 36.7674 45.2241 35.7673 44.224C34.7672 43.2239 33.4108 42.6621 31.9965 42.6621C30.5822 42.6621 29.2257 43.2239 28.2257 44.224C27.2256 45.2241 26.6637 46.5805 26.6637 47.9948V55.994" stroke="#636E72" stroke-width="3.99957" stroke-linecap="round" stroke-linejoin="round"/>
<path d="M15.9983 26.6638H10.6656C9.25122 26.6638 7.89481 27.2256 6.89472 28.2257C5.89464 29.2258 5.3328 30.5822 5.3328 31.9966V50.6612C5.3328 52.0755 5.89464 53.4319 6.89472 54.432C7.89481 55.4321 9.25122 55.994 10.6656 55.994H53.3276C54.7419 55.994 56.0983 55.4321 57.0984 54.432C58.0985 53.4319 58.6603 52.0755 58.6603 50.6612V23.9974C58.6603 22.5831 58.0985 21.2267 57.0984 20.2266C56.0983 19.2265 54.7419 18.6647 53.3276 18.6647H47.9948" stroke="#636E72" stroke-width="4" stroke-linecap="round" stroke-linejoin="round"/>
<path d="M15.9983 55.9939V13.3319C15.9983 11.9176 16.5601 10.5612 17.5602 9.56107C18.5603 8.56099 19.9167 7.99915 21.331 7.99915H42.662C44.0764 7.99915 45.4328 8.56099 46.4329 9.56107C47.4329 10.5612 47.9948 11.9176 47.9948 13.3319V55.9939" stroke="#636E72" stroke-width="3.99957" stroke-linecap="round" stroke-linejoin="round"/>
</symbol><symbol id="icon-logo-box-left" viewBox="0 0 81 112">
<path d="M0 103.76V111.42H80.4299V92.1599L0 96.12V103.76Z" fill="black"/>
<path d="M0 80.96V88.63L80.4299 84.6699V64.0699L0 73.2899V80.96Z" fill="black"/>
<path d="M0 58.1599V65.7999L80.4299 56.58V37.3199L0 50.5V58.1599Z" fill="black"/>
<path d="M0 27.7V35.34V43L80.4299 29.8199V0L0 27.7Z" fill="black"/>
</symbol><symbol id="icon-logo-box-right" viewBox="0 0 47 112">
<path d="M46.17 111.42V103.76V96.12L0 92.1599V111.42H46.17ZM46.17 88.63V80.96V73.2999L0 64.0699V84.6699L46.17 88.63ZM46.17 65.7999V58.1599V50.5L0 37.3199V56.58L46.17 65.7999ZM0 0V29.8199L46.17 43V35.34V27.7L0 0Z" fill="black"/>
</symbol><symbol id="icon-logo-digits" viewBox="0 0 192 111">
<path d="M175.71 42.08L169.44 48.32V55.36H191.72V48.32H177.8L184.06 42.08L177.8 35.8901H191.72V28.81H169.44V35.8901L175.71 42.08ZM175.71 13.32L169.44 19.56V26.6H191.72V19.56H177.8L184.06 13.32L177.8 7.13007H191.72V0.0499878H169.44V7.13007L175.71 13.32Z" fill="black"/>
<path d="M46.59 110.84H73.48V86.59H83.5V62.35H73.48V38.1H46.59V62.35H33.3999L56.61 0H26.5499L0 62.35V86.59H46.59V110.84Z" fill="black"/>
<path d="M136.93 110.84H163.82V86.59H173.84V62.35H163.82V38.1H136.93V62.35H123.74L146.95 0H116.89L90.34 62.35V86.59H136.93V110.84Z" fill="black"/>
</symbol><symbol id="icon-on-floor" viewBox="0 0 64 64">
<path d="M40 28H24C22.8954 28 22 28.8954 22 30V42C22 43.1046 22.8954 44 24 44H40C41.1046 44 42 43.1046 42 42V30C42 28.8954 41.1046 28 40 28Z" stroke="#64748B" stroke-width="3" stroke-linecap="round" stroke-linejoin="round"/>
<path d="M12 48H52" stroke="#64748B" stroke-width="3" stroke-linecap="round"/>
<path d="M16 48V52" stroke="#64748B" stroke-width="3" stroke-linecap="round"/>
<path d="M48 48V52" stroke="#64748B" stroke-width="3" stroke-linecap="round"/>
</symbol><symbol id="icon-on-wall" viewBox="0 0 64 64">
<path d="M45 6V58" stroke="#636E72" stroke-width="4" stroke-linecap="round"/>
<path d="M45 11H51" stroke="#636E72" stroke-width="4" stroke-linecap="round"/>
<path d="M45 53H51" stroke="#636E72" stroke-width="4" stroke-linecap="round"/>
<path d="M35.4 22H14.6C13.164 22 12 23.1193 12 24.5V39.5C12 40.8807 13.164 42 14.6 42H35.4C36.836 42 38 40.8807 38 39.5V24.5C38 23.1193 36.836 22 35.4 22Z" stroke="#636E72" stroke-width="4" stroke-linecap="round" stroke-linejoin="round"/>
<path d="M38 32H45" stroke="#636E72" stroke-width="4" stroke-linecap="round" stroke-dasharray="2 2"/>
</symbol><symbol id="icon-save" viewBox="0 0 24 24">
  <path d="M19 21H5a2 2 0 0 1-2-2V5a2 2 0 0 1 2-2h11l5 5v11a2 2 0 0 1-2 2z"/>
  <polyline points="17 21 17 13 7 13 7 21"/>
  <polyline points="7 3 7 8 15 8"/>
</symbol></svg>