<svg><defs/><symbol id="icon-check-list" viewBox="0 0 24 24">
  <path d="M6 13L10 17L18 7" stroke="currentColor" stroke-width="2" fill="none" stroke-linecap="round" stroke-linejoin="round"/>
</symbol><symbol id="icon-logo-box-left" viewBox="0 0 81 112">
<path d="M0 103.76V111.42H80.4299V92.1599L0 96.12V103.76Z" fill="black"/>
<path d="M0 80.96V88.63L80.4299 84.6699V64.0699L0 73.2899V80.96Z" fill="black"/>
<path d="M0 58.1599V65.7999L80.4299 56.58V37.3199L0 50.5V58.1599Z" fill="black"/>
<path d="M0 27.7V35.34V43L80.4299 29.8199V0L0 27.7Z" fill="black"/>
</symbol><symbol id="icon-logo-box-right" viewBox="0 0 47 112">
<path d="M46.17 111.42V103.76V96.12L0 92.1599V111.42H46.17ZM46.17 88.63V80.96V73.2999L0 64.0699V84.6699L46.17 88.63ZM46.17 65.7999V58.1599V50.5L0 37.3199V56.58L46.17 65.7999ZM0 0V29.8199L46.17 43V35.34V27.7L0 0Z" fill="black"/>
</symbol><symbol id="icon-logo-digits" viewBox="0 0 192 111">
<path d="M175.71 42.08L169.44 48.32V55.36H191.72V48.32H177.8L184.06 42.08L177.8 35.8901H191.72V28.81H169.44V35.8901L175.71 42.08ZM175.71 13.32L169.44 19.56V26.6H191.72V19.56H177.8L184.06 13.32L177.8 7.13007H191.72V0.0499878H169.44V7.13007L175.71 13.32Z" fill="black"/>
<path d="M46.59 110.84H73.48V86.59H83.5V62.35H73.48V38.1H46.59V62.35H33.3999L56.61 0H26.5499L0 62.35V86.59H46.59V110.84Z" fill="black"/>
<path d="M136.93 110.84H163.82V86.59H173.84V62.35H163.82V38.1H136.93V62.35H123.74L146.95 0H116.89L90.34 62.35V86.59H136.93V110.84Z" fill="black"/>
</symbol><symbol id="icon-save" viewBox="0 0 24 24">
  <path d="M19 21H5a2 2 0 0 1-2-2V5a2 2 0 0 1 2-2h11l5 5v11a2 2 0 0 1-2 2z"/>
  <polyline points="17 21 17 13 7 13 7 21"/>
  <polyline points="7 3 7 8 15 8"/>
</symbol></svg>