<svg><defs/><symbol id="icon-box" viewBox="0 0 64 64">
<path d="M55.9863 21.3282C55.9854 20.3931 55.7385 19.4748 55.2706 18.6652C54.8027 17.8557 54.1301 17.1835 53.3203 16.7159L34.6582 6.05188C33.8476 5.5839 32.9282 5.33752 31.9922 5.33752C31.0562 5.33752 30.1367 5.5839 29.3262 6.05188L10.6641 16.7159C9.85429 17.1835 9.1817 17.8557 8.71377 18.6652C8.24583 19.4748 7.99901 20.3931 7.99805 21.3282V42.6563C7.99901 43.5913 8.24583 44.5097 8.71377 45.3192C9.1817 46.1287 9.85429 46.801 10.6641 47.2685L29.3262 57.9325C30.1367 58.4005 31.0562 58.6469 31.9922 58.6469C32.9282 58.6469 33.8476 58.4005 34.6582 57.9325L53.3203 47.2685C54.1301 46.801 54.8027 46.1287 55.2706 45.3192C55.7385 44.5097 55.9854 43.5913 55.9863 42.6563V21.3282Z" stroke="#636E72" stroke-width="3.99902" stroke-linecap="round" stroke-linejoin="round"/>
<path d="M8.79785 18.6621L31.9922 31.9922L55.1865 18.6621" stroke="#636E72" stroke-width="3.99902" stroke-linecap="round" stroke-linejoin="round"/>
<path d="M31.9922 58.6523V31.9922" stroke="#636E72" stroke-width="3.99902" stroke-linecap="round" stroke-linejoin="round"/>
</symbol><symbol id="icon-check-list" viewBox="0 0 24 24">
  <path d="M6 13L10 17L18 7" stroke="currentColor" stroke-width="2" fill="none" stroke-linecap="round" stroke-linejoin="round"/>
</symbol><symbol id="icon-house" viewBox="0 0 64 64">
<path d="M26.6637 31.9966H37.3292" stroke="#636E72" stroke-width="3.99957" stroke-linecap="round" stroke-linejoin="round"/>
<path d="M26.6637 21.331H37.3292" stroke="#636E72" stroke-width="3.99957" stroke-linecap="round" stroke-linejoin="round"/>
<path d="M37.3292 55.994V47.9948C37.3292 46.5805 36.7674 45.2241 35.7673 44.224C34.7672 43.2239 33.4108 42.6621 31.9965 42.6621C30.5822 42.6621 29.2257 43.2239 28.2257 44.224C27.2256 45.2241 26.6637 46.5805 26.6637 47.9948V55.994" stroke="#636E72" stroke-width="3.99957" stroke-linecap="round" stroke-linejoin="round"/>
<path d="M15.9983 26.6638H10.6656C9.25122 26.6638 7.89481 27.2256 6.89472 28.2257C5.89464 29.2258 5.3328 30.5822 5.3328 31.9966V50.6612C5.3328 52.0755 5.89464 53.4319 6.89472 54.432C7.89481 55.4321 9.25122 55.994 10.6656 55.994H53.3276C54.7419 55.994 56.0983 55.4321 57.0984 54.432C58.0985 53.4319 58.6603 52.0755 58.6603 50.6612V23.9974C58.6603 22.5831 58.0985 21.2267 57.0984 20.2266C56.0983 19.2265 54.7419 18.6647 53.3276 18.6647H47.9948" stroke="#636E72" stroke-width="3.99957" stroke-linecap="round" stroke-linejoin="round"/>
<path d="M15.9983 55.9939V13.3319C15.9983 11.9176 16.5601 10.5612 17.5602 9.56107C18.5603 8.56099 19.9167 7.99915 21.331 7.99915H42.662C44.0764 7.99915 45.4328 8.56099 46.4329 9.56107C47.4329 10.5612 47.9948 11.9176 47.9948 13.3319V55.9939" stroke="#636E72" stroke-width="3.99957" stroke-linecap="round" stroke-linejoin="round"/>
</symbol><symbol id="icon-logo-box-left" viewBox="0 0 81 112">
<path d="M0 103.76V111.42H80.4299V92.1599L0 96.12V103.76Z" fill="black"/>
<path d="M0 80.96V88.63L80.4299 84.6699V64.0699L0 73.2899V80.96Z" fill="black"/>
<path d="M0 58.1599V65.7999L80.4299 56.58V37.3199L0 50.5V58.1599Z" fill="black"/>
<path d="M0 27.7V35.34V43L80.4299 29.8199V0L0 27.7Z" fill="black"/>
</symbol><symbol id="icon-logo-box-right" viewBox="0 0 47 112">
<path d="M46.17 111.42V103.76V96.12L0 92.1599V111.42H46.17ZM46.17 88.63V80.96V73.2999L0 64.0699V84.6699L46.17 88.63ZM46.17 65.7999V58.1599V50.5L0 37.3199V56.58L46.17 65.7999ZM0 0V29.8199L46.17 43V35.34V27.7L0 0Z" fill="black"/>
</symbol><symbol id="icon-logo-digits" viewBox="0 0 192 111">
<path d="M175.71 42.08L169.44 48.32V55.36H191.72V48.32H177.8L184.06 42.08L177.8 35.8901H191.72V28.81H169.44V35.8901L175.71 42.08ZM175.71 13.32L169.44 19.56V26.6H191.72V19.56H177.8L184.06 13.32L177.8 7.13007H191.72V0.0499878H169.44V7.13007L175.71 13.32Z" fill="black"/>
<path d="M46.59 110.84H73.48V86.59H83.5V62.35H73.48V38.1H46.59V62.35H33.3999L56.61 0H26.5499L0 62.35V86.59H46.59V110.84Z" fill="black"/>
<path d="M136.93 110.84H163.82V86.59H173.84V62.35H163.82V38.1H136.93V62.35H123.74L146.95 0H116.89L90.34 62.35V86.59H136.93V110.84Z" fill="black"/>
</symbol><symbol id="icon-Rectangle 1" viewBox="0 0 363 275">
<rect width="363" height="275" fill="#D9D9D9"/>
</symbol><symbol id="icon-save" viewBox="0 0 24 24">
  <path d="M19 21H5a2 2 0 0 1-2-2V5a2 2 0 0 1 2-2h11l5 5v11a2 2 0 0 1-2 2z"/>
  <polyline points="17 21 17 13 7 13 7 21"/>
  <polyline points="7 3 7 8 15 8"/>
</symbol><symbol id="icon-street" viewBox="0 0 351 376">
<path fill-rule="evenodd" clip-rule="evenodd" d="M121.166 206.01C155.196 206.06 216.966 206.4 250.996 206.12C285.026 205.84 291.316 204.96 297.156 203.09C303.006 201.21 308.406 198.34 313.646 194.76C318.886 191.17 323.966 186.87 328.206 182.07C332.456 177.28 335.876 171.98 338.416 166.58C340.956 161.17 342.606 155.65 343.486 150.25C344.366 144.84 344.476 139.55 344.206 134.75C343.926 129.95 343.266 125.65 342.386 121.96C341.506 118.26 340.396 115.17 338.796 111.59C337.196 108 335.106 103.92 333.066 100.28C331.026 96.64 329.036 93.44 326.396 90.35C323.746 87.26 320.436 84.29 317.566 81.97C314.696 79.65 312.276 77.9999 309.456 76.3999C306.646 74.7999 303.446 73.26 299.536 71.99C295.616 70.72 290.986 69.73 284.416 69.34C277.856 68.95 269.366 69.17 264.126 69.29C258.886 69.4 256.896 69.4 255.356 67.63C253.806 65.87 252.706 62.34 250.826 58.2C248.956 54.06 246.306 49.32 243.606 45.18C240.906 41.05 238.146 37.52 233.956 33.44C229.756 29.35 224.136 24.7199 219.556 21.5199C214.976 18.3199 211.456 16.56 207.866 14.79C204.276 13.03 200.636 11.26 196.616 9.93999C192.586 8.61999 188.176 7.73 183.596 7.07C179.026 6.41 174.276 5.96996 169.866 5.90996C165.456 5.85996 161.376 6.18998 157.066 6.79998C152.766 7.39998 148.246 8.27997 143.996 9.60997C139.756 10.93 135.776 12.6999 132.246 14.4599C128.716 16.2299 125.636 17.99 122.546 19.92C119.456 21.85 116.366 23.95 113.056 26.65C109.746 29.35 106.216 32.6599 102.966 36.0799C99.7061 39.4999 96.7362 43.03 94.3062 46.51C91.8762 49.98 90.0062 53.4 88.1862 56.87C86.3662 60.35 84.5962 63.88 83.4962 66.75C82.3862 69.61 81.9461 71.82 81.3961 74.14C80.8461 76.45 80.1862 78.88 79.6362 81.2C79.0862 83.51 78.6462 85.72 76.5462 86.82C74.4462 87.93 70.6962 87.93 66.0162 88.2C61.3262 88.48 55.6962 89.03 50.7362 90.3C45.7662 91.57 41.4661 93.55 37.2761 96.03C33.0861 98.52 29.0062 101.49 25.1962 104.91C21.3962 108.33 17.8662 112.19 14.8862 116.5C11.9062 120.8 9.47617 125.54 7.93617 131.5C6.38617 137.45 5.72618 144.62 5.94618 150.58C6.16618 156.54 7.27616 161.28 8.92616 165.91C10.5862 170.55 12.7862 175.07 15.4962 179.04C18.1962 183.01 21.3961 186.43 25.0361 189.96C28.6762 193.49 32.7562 197.13 37.1062 199.83C41.4662 202.53 46.0962 204.3 52.3862 205.24C58.6762 206.18 66.6162 206.29 73.7362 206.23C80.8462 206.18 87.1362 205.95 121.166 206.01Z" stroke="#2B2A29" stroke-width="11.81" stroke-miterlimit="22.9256"/>
<path d="M58.8662 290.39L101.976 332.94L64.4362 371.32" stroke="#2B2A29" stroke-width="11.81" stroke-miterlimit="22.9256"/>
<path d="M97.9062 258.075L58.6762 297.815" stroke="#2B2A29" stroke-width="11.81" stroke-miterlimit="22.9256"/>
<path d="M143.896 290.39L187.006 332.94L149.456 371.32" stroke="#2B2A29" stroke-width="11.81" stroke-miterlimit="22.9256"/>
<path d="M182.896 258.075L143.676 297.815" stroke="#2B2A29" stroke-width="11.81" stroke-miterlimit="22.9256"/>
<path d="M228.926 290.39L272.026 332.94L234.486 371.32" stroke="#2B2A29" stroke-width="11.81" stroke-miterlimit="22.9256"/>
<path d="M267.066 257.075L228.676 298.69" stroke="#2B2A29" stroke-width="11.81" stroke-miterlimit="22.9256"/>
</symbol><symbol id="icon-wall" viewBox="0 0 64 64">
<path d="M13.3301 55.9863C11.9159 55.9863 10.5597 55.4246 9.55976 54.4246C8.55981 53.4247 7.99805 52.0684 7.99805 50.6543V13.3301C7.99805 11.9159 8.55981 10.5597 9.55976 9.55976C10.5597 8.55981 11.9159 7.99805 13.3301 7.99805H50.6543C52.0684 7.99805 53.4247 8.55981 54.4246 9.55976C55.4246 10.5597 55.9863 11.9159 55.9863 13.3301V50.6543C55.9863 52.0684 55.4246 53.4247 54.4246 54.4246C53.4247 55.4246 52.0684 55.9863 50.6543 55.9863" stroke="#636E72" stroke-width="3.99902" stroke-linecap="round" stroke-linejoin="round"/>
<path d="M23.9941 55.9863H26.6608" stroke="#636E72" stroke-width="3.99902" stroke-linecap="round" stroke-linejoin="round"/>
<path d="M37.3242 55.9863H39.9909" stroke="#636E72" stroke-width="3.99902" stroke-linecap="round" stroke-linejoin="round"/>
</symbol></svg>