{
	"asset":{
		"generator":"Khronos glTF Blender I/O v4.5.48",
		"version":"2.0"
	},
	"scene":0,
	"scenes":[
		{
			"name":"Scene",
			"nodes":[
				1
			]
		}
	],
	"nodes":[
		{
			"mesh":0,
			"name":"din_mesh"
		},
		{
			"children":[
				0
			],
			"mesh":1,
			"name":"socket_g"
		}
	],
	"materials":[
		{
			"doubleSided":true,
			"name":"mat_0",
			"pbrMetallicRoughness":{
				"baseColorFactor":[
					0.5906188488006592,
					0.637596845626831,
					0.8549926280975342,
					1
				],
				"roughnessFactor":0.2121320366859436
			}
		}
	],
	"meshes":[
		{
			"name":"din_mesh",
			"primitives":[
				{
					"attributes":{
						"POSITION":0,
						"NORMAL":1
					},
					"indices":2,
					"material":0
				}
			]
		},
		{
			"name":"socke_g",
			"primitives":[
				{
					"attributes":{
						"POSITION":3,
						"NORMAL":4
					},
					"indices":5,
					"material":0
				}
			]
		}
	],
	"accessors":[
		{
			"bufferView":0,
			"componentType":5126,
			"count":12,
			"max":[
				0.02225000038743019,
				0.06161746382713318,
				0.05595026910305023
			],
			"min":[
				-0.02225000038743019,
				0.025617461651563644,
				0.05595026910305023
			],
			"type":"VEC3"
		},
		{
			"bufferView":1,
			"componentType":5126,
			"count":12,
			"type":"VEC3"
		},
		{
			"bufferView":2,
			"componentType":5123,
			"count":30,
			"type":"SCALAR"
		},
		{
			"bufferView":3,
			"componentType":5126,
			"count":1684,
			"max":[
				0.02225000225007534,
				0.08186746388673782,
				0.06095027178525925
			],
			"min":[
				-0.02225000225007534,
				0.003867462044581771,
				-0.00224972958676517
			],
			"type":"VEC3"
		},
		{
			"bufferView":4,
			"componentType":5126,
			"count":1684,
			"type":"VEC3"
		},
		{
			"bufferView":5,
			"componentType":5123,
			"count":4260,
			"type":"SCALAR"
		}
	],
	"bufferViews":[
		{
			"buffer":0,
			"byteLength":144,
			"byteOffset":0,
			"target":34962
		},
		{
			"buffer":0,
			"byteLength":144,
			"byteOffset":144,
			"target":34962
		},
		{
			"buffer":0,
			"byteLength":60,
			"byteOffset":288,
			"target":34963
		},
		{
			"buffer":0,
			"byteLength":20208,
			"byteOffset":348,
			"target":34962
		},
		{
			"buffer":0,
			"byteLength":20208,
			"byteOffset":20556,
			"target":34962
		},
		{
			"buffer":0,
			"byteLength":8520,
			"byteOffset":40764,
			"target":34963
		}
	],
	"buffers":[
		{
			"byteLength":49284,
			"uri":"socket_g.bin"
		}
	]
}
