<svg width="351" height="376" viewBox="0 0 351 376" fill="none" xmlns="http://www.w3.org/2000/svg">
<path fill-rule="evenodd" clip-rule="evenodd" d="M121.166 206.01C155.196 206.06 216.966 206.4 250.996 206.12C285.026 205.84 291.316 204.96 297.156 203.09C303.006 201.21 308.406 198.34 313.646 194.76C318.886 191.17 323.966 186.87 328.206 182.07C332.456 177.28 335.876 171.98 338.416 166.58C340.956 161.17 342.606 155.65 343.486 150.25C344.366 144.84 344.476 139.55 344.206 134.75C343.926 129.95 343.266 125.65 342.386 121.96C341.506 118.26 340.396 115.17 338.796 111.59C337.196 108 335.106 103.92 333.066 100.28C331.026 96.64 329.036 93.44 326.396 90.35C323.746 87.26 320.436 84.29 317.566 81.97C314.696 79.65 312.276 77.9999 309.456 76.3999C306.646 74.7999 303.446 73.26 299.536 71.99C295.616 70.72 290.986 69.73 284.416 69.34C277.856 68.95 269.366 69.17 264.126 69.29C258.886 69.4 256.896 69.4 255.356 67.63C253.806 65.87 252.706 62.34 250.826 58.2C248.956 54.06 246.306 49.32 243.606 45.18C240.906 41.05 238.146 37.52 233.956 33.44C229.756 29.35 224.136 24.7199 219.556 21.5199C214.976 18.3199 211.456 16.56 207.866 14.79C204.276 13.03 200.636 11.26 196.616 9.93999C192.586 8.61999 188.176 7.73 183.596 7.07C179.026 6.41 174.276 5.96996 169.866 5.90996C165.456 5.85996 161.376 6.18998 157.066 6.79998C152.766 7.39998 148.246 8.27997 143.996 9.60997C139.756 10.93 135.776 12.6999 132.246 14.4599C128.716 16.2299 125.636 17.99 122.546 19.92C119.456 21.85 116.366 23.95 113.056 26.65C109.746 29.35 106.216 32.6599 102.966 36.0799C99.7061 39.4999 96.7362 43.03 94.3062 46.51C91.8762 49.98 90.0062 53.4 88.1862 56.87C86.3662 60.35 84.5962 63.88 83.4962 66.75C82.3862 69.61 81.9461 71.82 81.3961 74.14C80.8461 76.45 80.1862 78.88 79.6362 81.2C79.0862 83.51 78.6462 85.72 76.5462 86.82C74.4462 87.93 70.6962 87.93 66.0162 88.2C61.3262 88.48 55.6962 89.03 50.7362 90.3C45.7662 91.57 41.4661 93.55 37.2761 96.03C33.0861 98.52 29.0062 101.49 25.1962 104.91C21.3962 108.33 17.8662 112.19 14.8862 116.5C11.9062 120.8 9.47617 125.54 7.93617 131.5C6.38617 137.45 5.72618 144.62 5.94618 150.58C6.16618 156.54 7.27616 161.28 8.92616 165.91C10.5862 170.55 12.7862 175.07 15.4962 179.04C18.1962 183.01 21.3961 186.43 25.0361 189.96C28.6762 193.49 32.7562 197.13 37.1062 199.83C41.4662 202.53 46.0962 204.3 52.3862 205.24C58.6762 206.18 66.6162 206.29 73.7362 206.23C80.8462 206.18 87.1362 205.95 121.166 206.01Z" stroke="#2B2A29" stroke-width="11.81" stroke-miterlimit="22.9256"/>
<path d="M58.8662 290.39L101.976 332.94L64.4362 371.32" stroke="#2B2A29" stroke-width="11.81" stroke-miterlimit="22.9256"/>
<path d="M97.9062 258.075L58.6762 297.815" stroke="#2B2A29" stroke-width="11.81" stroke-miterlimit="22.9256"/>
<path d="M143.896 290.39L187.006 332.94L149.456 371.32" stroke="#2B2A29" stroke-width="11.81" stroke-miterlimit="22.9256"/>
<path d="M182.896 258.075L143.676 297.815" stroke="#2B2A29" stroke-width="11.81" stroke-miterlimit="22.9256"/>
<path d="M228.926 290.39L272.026 332.94L234.486 371.32" stroke="#2B2A29" stroke-width="11.81" stroke-miterlimit="22.9256"/>
<path d="M267.066 257.075L228.676 298.69" stroke="#2B2A29" stroke-width="11.81" stroke-miterlimit="22.9256"/>
</svg>
