<svg width="64" height="64" viewBox="0 0 64 64" fill="none" xmlns="http://www.w3.org/2000/svg">
<path d="M13.3301 55.9863C11.9159 55.9863 10.5597 55.4246 9.55976 54.4246C8.55981 53.4247 7.99805 52.0684 7.99805 50.6543V13.3301C7.99805 11.9159 8.55981 10.5597 9.55976 9.55976C10.5597 8.55981 11.9159 7.99805 13.3301 7.99805H50.6543C52.0684 7.99805 53.4247 8.55981 54.4246 9.55976C55.4246 10.5597 55.9863 11.9159 55.9863 13.3301V50.6543C55.9863 52.0684 55.4246 53.4247 54.4246 54.4246C53.4247 55.4246 52.0684 55.9863 50.6543 55.9863" stroke="#636E72" stroke-width="3.99902" stroke-linecap="round" stroke-linejoin="round"/>
<path d="M23.9941 55.9863H26.6608" stroke="#636E72" stroke-width="3.99902" stroke-linecap="round" stroke-linejoin="round"/>
<path d="M37.3242 55.9863H39.9909" stroke="#636E72" stroke-width="3.99902" stroke-linecap="round" stroke-linejoin="round"/>
</svg>
